<svg width="1024" height="1024" class="icon" style="vertical-align: middle;fill: currentColor;overflow: hidden;" viewBox="0 0 1024 1024" version="1.1" xmlns="http://www.w3.org/2000/svg" p-id="1124"><path d="M506.2144 448.3584m-372.224 0a372.224 372.224 0 1 0 744.448 0 372.224 372.224 0 1 0-744.448 0Z" fill="#6ECEF6" p-id="1125"></path><path d="M506.2144 835.9936a387.6352 387.6352 0 1 1 387.584-387.6352 388.0448 388.0448 0 0 1-387.584 387.6352z m0-744.4992a356.9152 356.9152 0 1 0 356.864 356.864 357.2736 357.2736 0 0 0-356.864-356.864z" fill="#585858" p-id="1126"></path><path d="M662.8352 591.3088l-28.9792-39.0656a6.7584 6.7584 0 0 1 5.4272-10.752h4.1984a6.8096 6.8096 0 0 0 5.4272-10.8032l-36.2496-48.7936a6.8096 6.8096 0 0 1 5.4272-10.8544 6.7072 6.7072 0 0 0 5.4272-10.752l-89.4464-120.4224a27.4432 27.4432 0 0 0-44.1344 0L400.4864 460.3392A6.7072 6.7072 0 0 0 405.9136 471.04a6.8096 6.8096 0 0 1 5.4272 10.8032l-36.2496 48.7936a6.8096 6.8096 0 0 0 5.4272 10.8032h4.1984a6.7072 6.7072 0 0 1 5.4272 10.752l-28.9792 39.0656a6.7584 6.7584 0 0 0 5.4272 10.8032h106.752a6.7584 6.7584 0 0 1 6.7584 6.7072v140.5952a6.7584 6.7584 0 0 0 6.7584 6.7584h50.2784a6.7584 6.7584 0 0 0 6.7584-6.7584v-140.544a6.7584 6.7584 0 0 1 6.7584-6.7072h106.752a6.7584 6.7584 0 0 0 5.4272-10.8032z" fill="#FFFFFF" p-id="1127"></path><path d="M537.1392 771.5328h-50.2784a22.1184 22.1184 0 0 1-22.1184-22.1184V617.472H366.592a22.1184 22.1184 0 0 1-17.7664-35.328l20.8896-28.1088a22.1696 22.1696 0 0 1-6.9632-32.512l29.5424-39.7312a21.504 21.504 0 0 1-6.144-7.5264 21.9136 21.9136 0 0 1 1.9968-23.0912L479.0272 328.704a40.96 40.96 0 0 1 65.9456 0l90.88 122.4704a22.1184 22.1184 0 0 1-4.1472 30.72l29.5424 39.7312a22.1696 22.1696 0 0 1-6.9632 32.512l20.8896 28.1088a22.1184 22.1184 0 0 1-17.7664 35.328h-98.1504v131.9424a22.1184 22.1184 0 0 1-22.1184 22.016z m-41.6768-30.72h33.0752v-131.9936a22.1184 22.1184 0 0 1 22.1184-22.0672h89.6512l-18.7904-25.344a22.016 22.016 0 0 1-1.9968-23.1424 22.4768 22.4768 0 0 1 8.9088-9.3696l-28.1088-37.8368a22.016 22.016 0 0 1-1.9968-23.1424 22.528 22.528 0 0 1 6.144-7.4752l-84.1728-113.408a10.6496 10.6496 0 0 0-16.5888 0L419.5328 460.4416a22.528 22.528 0 0 1 6.144 7.4752 22.016 22.016 0 0 1-1.9968 23.1424l-28.1088 37.8368a22.4768 22.4768 0 0 1 8.9088 9.3696 22.016 22.016 0 0 1-1.9968 23.1424l-18.7904 25.344h89.6512a22.1184 22.1184 0 0 1 22.1184 22.0672z m155.0336-140.3904z" fill="#585858" p-id="1128"></path><path d="M743.7824 719.7184h-475.136l-87.7568 195.4816a23.1936 23.1936 0 0 0 21.1456 32.6656h608.3584a23.1936 23.1936 0 0 0 21.1456-32.6656z" fill="#FC7879" p-id="1129"></path><path d="M810.3936 963.2256H202.0352a38.5536 38.5536 0 0 1-35.1232-54.3232l72.8576-162.3552a71.68 71.68 0 0 1 65.1776-42.1888h402.5344a71.68 71.68 0 0 1 65.1776 42.1888l72.8576 162.3552a38.5536 38.5536 0 0 1-35.1232 54.3232z m-505.4464-228.1472a40.96 40.96 0 0 0-37.12 24.0128L194.9184 921.6a7.8336 7.8336 0 0 0 7.1168 11.008h608.3584a7.8336 7.8336 0 0 0 7.1168-11.008l-72.9088-162.4064a40.96 40.96 0 0 0-37.12-24.0128z" fill="#585858" p-id="1130"></path><path d="M346.7264 785.5616h318.976v77.2096h-318.976z" fill="#F6C34C" p-id="1131"></path><path d="M665.6 878.1312H346.7264a15.36 15.36 0 0 1-15.36-15.36v-77.2096a15.36 15.36 0 0 1 15.36-15.36H665.6a15.36 15.36 0 0 1 15.36 15.36v77.2096a15.36 15.36 0 0 1-15.36 15.36z m-303.616-30.72H650.24v-46.4896H362.0864z" fill="#585858" p-id="1132"></path><path d="M324.7616 642.9184H263.936a7.68 7.68 0 0 1 0-15.36h60.8256a7.68 7.68 0 1 1 0 15.36z" fill="#FFFFFF" p-id="1133"></path><path d="M294.3488 673.28A7.68 7.68 0 0 1 286.72 665.6v-60.7744a7.68 7.68 0 0 1 15.36 0V665.6a7.68 7.68 0 0 1-7.7312 7.68z" fill="#FFFFFF" p-id="1134"></path><path d="M272.8448 664.4224a7.7312 7.7312 0 0 1-5.4272-13.1584l43.008-42.9568a7.6288 7.6288 0 0 1 10.8544 0 7.7312 7.7312 0 0 1 0 10.8544l-43.008 43.008a7.7312 7.7312 0 0 1-5.4272 2.2528z" fill="#FFFFFF" p-id="1135"></path><path d="M315.8528 664.4224a7.6288 7.6288 0 0 1-5.4272-2.2528l-43.008-43.008a7.68 7.68 0 0 1 10.8544-10.8544l43.008 42.9568a7.7312 7.7312 0 0 1-5.4272 13.1584zM267.5712 474.4704H206.7968a7.68 7.68 0 0 1 0-15.36h60.7744a7.68 7.68 0 1 1 0 15.36z" fill="#FFFFFF" p-id="1136"></path><path d="M237.1584 504.8832a7.68 7.68 0 0 1-7.68-7.68V436.4288a7.68 7.68 0 0 1 15.36 0v60.7744a7.68 7.68 0 0 1-7.68 7.68z" fill="#FFFFFF" p-id="1137"></path><path d="M215.6544 495.9744a7.5776 7.5776 0 0 1-5.4272-2.2528 7.7312 7.7312 0 0 1 0-10.8544l43.008-43.008a7.7312 7.7312 0 0 1 10.8544 0 7.6288 7.6288 0 0 1 0 10.8544l-42.9568 43.008a7.6288 7.6288 0 0 1-5.4784 2.2528z" fill="#FFFFFF" p-id="1138"></path><path d="M258.6624 495.9744a7.5264 7.5264 0 0 1-5.4272-2.2528L210.2272 450.56a7.68 7.68 0 0 1 10.9056-10.8544l42.9568 43.008a7.6288 7.6288 0 0 1 0 10.8544 7.424 7.424 0 0 1-5.4272 2.4064zM427.3664 348.16H366.5408a7.68 7.68 0 0 1 0-15.36h60.8256a7.68 7.68 0 0 1 0 15.36z" fill="#FFFFFF" p-id="1139"></path><path d="M396.9536 378.5728a7.68 7.68 0 0 1-7.68-7.68V310.1184a7.68 7.68 0 1 1 15.36 0v60.7744a7.68 7.68 0 0 1-7.68 7.68z" fill="#FFFFFF" p-id="1140"></path><path d="M375.4496 369.664a7.5264 7.5264 0 0 1-5.4272-2.2528 7.6288 7.6288 0 0 1 0-10.8544l43.008-43.008a7.68 7.68 0 1 1 10.8544 10.9056l-43.008 42.9568a7.5264 7.5264 0 0 1-5.4272 2.2528z" fill="#FFFFFF" p-id="1141"></path><path d="M418.4576 369.664a7.424 7.424 0 0 1-5.4272-2.2528l-43.008-42.9568a7.68 7.68 0 0 1 10.8544-10.9056l43.008 43.008a7.6288 7.6288 0 0 1 0 10.8544 7.5264 7.5264 0 0 1-5.4272 2.2528zM396.9536 211.456H336.128a7.68 7.68 0 0 1 0-15.36h60.8256a7.68 7.68 0 0 1 0 15.36z" fill="#FFFFFF" p-id="1142"></path><path d="M366.5408 241.8688a7.68 7.68 0 0 1-7.68-7.68V173.3632a7.68 7.68 0 0 1 15.36 0v60.8256a7.68 7.68 0 0 1-7.68 7.68z" fill="#FFFFFF" p-id="1143"></path><path d="M345.0368 232.96a7.68 7.68 0 0 1-5.4272-13.1072l43.008-43.008a7.68 7.68 0 0 1 10.8544 10.8544l-43.008 43.008a7.6288 7.6288 0 0 1-5.4272 2.2528z" fill="#FFFFFF" p-id="1144"></path><path d="M388.0448 232.96a7.7312 7.7312 0 0 1-5.4272-2.2528l-43.008-43.008a7.7312 7.7312 0 0 1 0-10.8544 7.6288 7.6288 0 0 1 10.8544 0l43.008 43.008a7.6288 7.6288 0 0 1 0 10.8544 7.7312 7.7312 0 0 1-5.4272 2.2528zM688.896 197.4272h-60.8256a7.68 7.68 0 0 1 0-15.36h60.8256a7.68 7.68 0 0 1 0 15.36z" fill="#FFFFFF" p-id="1145"></path><path d="M658.4832 227.84a7.68 7.68 0 0 1-7.68-7.68V159.3344a7.68 7.68 0 0 1 15.36 0V220.16a7.68 7.68 0 0 1-7.68 7.68z" fill="#FFFFFF" p-id="1146"></path><path d="M636.9792 218.9312a7.68 7.68 0 0 1-5.4272-13.1072l43.008-43.008a7.68 7.68 0 1 1 10.8544 10.8544l-43.008 43.008a7.6288 7.6288 0 0 1-5.4272 2.2528z" fill="#FFFFFF" p-id="1147"></path><path d="M679.9872 218.9312a7.7312 7.7312 0 0 1-5.4272-2.2528l-43.008-43.008a7.7312 7.7312 0 0 1 0-10.8544 7.6288 7.6288 0 0 1 10.8544 0l43.008 43.008a7.6288 7.6288 0 0 1 0 10.8544 7.7312 7.7312 0 0 1-5.4272 2.2528zM671.5392 348.16h-60.8256a7.68 7.68 0 0 1 0-15.36h60.8256a7.68 7.68 0 0 1 0 15.36z" fill="#FFFFFF" p-id="1148"></path><path d="M641.1264 378.5728a7.68 7.68 0 0 1-7.68-7.68V310.1184a7.68 7.68 0 1 1 15.36 0v60.7744a7.68 7.68 0 0 1-7.68 7.68z" fill="#FFFFFF" p-id="1149"></path><path d="M619.52 369.664a7.5264 7.5264 0 0 1-5.4272-2.2528 7.6288 7.6288 0 0 1 0-10.8544l43.008-43.008a7.68 7.68 0 1 1 10.8544 10.9056l-43.008 42.9568a7.5264 7.5264 0 0 1-5.4272 2.2528z" fill="#FFFFFF" p-id="1150"></path><path d="M662.6304 369.664a7.424 7.424 0 0 1-5.4272-2.2528L614.4 324.4544a7.68 7.68 0 0 1 10.8544-10.9056l43.008 43.008a7.6288 7.6288 0 0 1 0 10.8544 7.5264 7.5264 0 0 1-5.632 2.2528zM830.1568 454.2976h-60.8256a7.68 7.68 0 0 1 0-15.36h60.8256a7.68 7.68 0 0 1 0 15.36z" fill="#FFFFFF" p-id="1151"></path><path d="M799.744 484.7104a7.68 7.68 0 0 1-7.68-7.68V416.2048a7.68 7.68 0 0 1 15.36 0v60.8256a7.68 7.68 0 0 1-7.68 7.68z" fill="#FFFFFF" p-id="1152"></path><path d="M778.24 475.8016a7.7312 7.7312 0 0 1-5.4272-2.2528 7.6288 7.6288 0 0 1 0-10.8544l43.008-43.008a7.68 7.68 0 0 1 10.8544 10.8544l-43.008 43.008a7.7312 7.7312 0 0 1-5.4272 2.2528z" fill="#FFFFFF" p-id="1153"></path><path d="M821.248 475.8016a7.6288 7.6288 0 0 1-5.4272-2.2528l-43.008-43.008a7.6288 7.6288 0 0 1 0-10.8544 7.7312 7.7312 0 0 1 10.8544 0l43.008 43.008a7.7312 7.7312 0 0 1 0 10.8544 7.8336 7.8336 0 0 1-5.4272 2.2528zM763.648 591.0016h-60.8256a7.68 7.68 0 0 1 0-15.36h60.8256a7.68 7.68 0 1 1 0 15.36z" fill="#FFFFFF" p-id="1154"></path><path d="M733.2352 621.4144a7.68 7.68 0 0 1-7.68-7.68V552.96a7.68 7.68 0 1 1 15.36 0v60.8256a7.68 7.68 0 0 1-7.68 7.6288z" fill="#FFFFFF" p-id="1155"></path><path d="M711.68 612.5056a7.7312 7.7312 0 0 1-5.4272-2.2528 7.6288 7.6288 0 0 1 0-10.8544l43.008-43.008a7.68 7.68 0 0 1 10.8544 10.8544l-43.008 43.008a7.7312 7.7312 0 0 1-5.4272 2.2528z" fill="#FFFFFF" p-id="1156"></path><path d="M754.7392 612.5056a7.6288 7.6288 0 0 1-5.4272-2.2528l-43.008-43.008a7.68 7.68 0 0 1 10.8544-10.8544l43.008 43.008a7.6288 7.6288 0 0 1 0 10.8544 7.7312 7.7312 0 0 1-5.4272 2.2528z" fill="#FFFFFF" p-id="1157"></path></svg>
